<svg xmlns="http://www.w3.org/2000/svg" xmlns:xlink="http://www.w3.org/1999/xlink" width="100" zoomAndPan="magnify" viewBox="0 0 75.119995 37.92" height="40" preserveAspectRatio="xMidYMid meet" version="1.0"><defs><g/><clipPath id="b3bd4c17ce"><path d="M 1.019531 1.496094 L 22.679688 1.496094 L 22.679688 26.621094 L 1.019531 26.621094 Z M 1.019531 1.496094 " clip-rule="nonzero"/></clipPath><clipPath id="681854c787"><path d="M 28 2 L 72.777344 2 L 72.777344 22 L 28 22 Z M 28 2 " clip-rule="nonzero"/></clipPath><clipPath id="226086ca26"><path d="M 0.179688 3 L 11 3 L 11 15 L 0.179688 15 Z M 0.179688 3 " clip-rule="nonzero"/></clipPath><clipPath id="e1a21aaf33"><rect x="0" width="45" y="0" height="20"/></clipPath><clipPath id="415f66264a"><path d="M 28 19 L 72.777344 19 L 72.777344 26 L 28 26 Z M 28 19 " clip-rule="nonzero"/></clipPath><clipPath id="6ff52a2794"><path d="M 0.179688 1 L 3 1 L 3 5 L 0.179688 5 Z M 0.179688 1 " clip-rule="nonzero"/></clipPath><clipPath id="aa613309ea"><rect x="0" width="45" y="0" height="7"/></clipPath><clipPath id="691c5f9bba"><rect x="0" width="73" y="0" height="28"/></clipPath></defs><g transform="matrix(1, 0, 0, 1, 1, 1)"><g clip-path="url(#691c5f9bba)"><path fill="#004aad" d="M 20.347656 8.644531 L 21.15625 8.644531 C 21.390625 8.640625 21.554688 8.527344 21.644531 8.304688 C 21.730469 8.085938 21.691406 7.894531 21.527344 7.722656 L 16.222656 2.414062 C 16.054688 2.246094 15.859375 2.207031 15.636719 2.296875 C 15.417969 2.390625 15.304688 2.554688 15.304688 2.792969 L 15.304688 3.601562 C 15.300781 3.933594 15.335938 4.261719 15.398438 4.585938 C 15.464844 4.910156 15.558594 5.226562 15.6875 5.53125 C 15.8125 5.839844 15.96875 6.128906 16.152344 6.402344 C 16.335938 6.679688 16.542969 6.933594 16.777344 7.167969 C 17.011719 7.402344 17.269531 7.613281 17.542969 7.796875 C 17.820312 7.980469 18.109375 8.136719 18.414062 8.261719 C 18.722656 8.386719 19.039062 8.484375 19.363281 8.546875 C 19.6875 8.613281 20.015625 8.644531 20.347656 8.644531 Z M 20.347656 8.644531 " fill-opacity="1" fill-rule="nonzero"/><g clip-path="url(#b3bd4c17ce)"><path fill="#004aad" d="M 20.347656 10.433594 C 19.898438 10.429688 19.453125 10.386719 19.015625 10.300781 C 18.574219 10.210938 18.148438 10.082031 17.734375 9.910156 C 17.320312 9.738281 16.925781 9.527344 16.550781 9.277344 C 16.179688 9.03125 15.835938 8.746094 15.519531 8.429688 C 15.199219 8.113281 14.917969 7.769531 14.667969 7.394531 C 14.417969 7.023438 14.207031 6.628906 14.035156 6.214844 C 13.863281 5.800781 13.734375 5.375 13.648438 4.933594 C 13.558594 4.492188 13.515625 4.050781 13.515625 3.601562 C 13.515625 3.320312 13.460938 3.054688 13.355469 2.796875 C 13.25 2.539062 13.097656 2.308594 12.898438 2.113281 C 12.703125 1.914062 12.476562 1.765625 12.21875 1.65625 C 11.960938 1.550781 11.691406 1.496094 11.410156 1.496094 L 6.050781 1.496094 C 5.71875 1.496094 5.390625 1.527344 5.066406 1.59375 C 4.742188 1.65625 4.425781 1.753906 4.121094 1.878906 C 3.8125 2.007812 3.523438 2.160156 3.246094 2.34375 C 2.972656 2.53125 2.71875 2.738281 2.484375 2.972656 C 2.25 3.207031 2.039062 3.460938 1.855469 3.738281 C 1.671875 4.011719 1.515625 4.304688 1.390625 4.609375 C 1.261719 4.914062 1.167969 5.230469 1.101562 5.554688 C 1.039062 5.882812 1.007812 6.210938 1.007812 6.539062 L 1.007812 21.472656 C 1.007812 21.800781 1.039062 22.128906 1.101562 22.457031 C 1.167969 22.78125 1.261719 23.09375 1.390625 23.402344 C 1.515625 23.707031 1.671875 24 1.855469 24.273438 C 2.039062 24.550781 2.25 24.804688 2.484375 25.039062 C 2.71875 25.273438 2.972656 25.480469 3.246094 25.667969 C 3.523438 25.851562 3.8125 26.003906 4.121094 26.132812 C 4.425781 26.257812 4.742188 26.355469 5.066406 26.417969 C 5.390625 26.484375 5.71875 26.515625 6.050781 26.515625 L 17.40625 26.515625 C 17.738281 26.515625 18.066406 26.484375 18.390625 26.417969 C 18.714844 26.355469 19.03125 26.257812 19.335938 26.132812 C 19.644531 26.003906 19.933594 25.851562 20.210938 25.667969 C 20.484375 25.480469 20.742188 25.273438 20.976562 25.039062 C 21.210938 24.804688 21.417969 24.550781 21.601562 24.273438 C 21.785156 24 21.941406 23.707031 22.066406 23.402344 C 22.195312 23.09375 22.289062 22.78125 22.355469 22.457031 C 22.417969 22.128906 22.449219 21.800781 22.449219 21.472656 L 22.449219 12.535156 C 22.449219 12.257812 22.398438 11.988281 22.289062 11.730469 C 22.183594 11.472656 22.03125 11.246094 21.835938 11.046875 C 21.636719 10.851562 21.410156 10.699219 21.152344 10.59375 C 20.894531 10.484375 20.625 10.433594 20.347656 10.433594 Z M 16.851562 22.941406 L 16.769531 22.941406 C 16.464844 22.945312 16.191406 22.855469 15.941406 22.679688 C 15.695312 22.503906 15.523438 22.273438 15.429688 21.984375 C 15.347656 21.738281 15.28125 21.539062 15.226562 21.410156 C 15.070312 21 14.820312 20.65625 14.484375 20.375 C 14.148438 20.097656 13.761719 19.917969 13.332031 19.835938 L 11.839844 19.558594 C 10.527344 19.335938 9.414062 18.738281 8.5 17.773438 C 7.335938 16.488281 6.734375 14.976562 6.695312 13.246094 C 6.683594 12.230469 6.460938 11.261719 6.03125 10.339844 L 5.9375 10.144531 C 5.851562 10.015625 5.84375 9.878906 5.917969 9.742188 C 5.996094 9.601562 6.109375 9.535156 6.269531 9.539062 L 10.664062 9.789062 C 11.121094 9.808594 11.566406 9.875 12.003906 9.988281 C 13.015625 10.246094 13.921875 10.710938 14.722656 11.378906 C 15.546875 12.105469 16.160156 12.980469 16.554688 14.007812 C 16.949219 15.035156 17.082031 16.09375 16.957031 17.1875 C 16.9375 17.339844 16.855469 17.4375 16.710938 17.484375 C 16.5625 17.527344 16.441406 17.496094 16.339844 17.378906 C 16.074219 17.078125 15.726562 16.695312 15.390625 16.320312 C 14.570312 15.398438 13.585938 14.710938 12.433594 14.261719 L 11.285156 13.8125 L 12.773438 15.121094 C 13.339844 15.648438 13.863281 16.210938 14.351562 16.8125 C 15.328125 18.019531 16.167969 19.3125 16.875 20.695312 C 17.019531 20.976562 17.226562 21.464844 17.46875 22.035156 C 17.511719 22.136719 17.527344 22.242188 17.515625 22.351562 C 17.503906 22.460938 17.46875 22.5625 17.40625 22.652344 C 17.34375 22.746094 17.261719 22.816406 17.164062 22.867188 C 17.066406 22.917969 16.964844 22.941406 16.851562 22.941406 Z M 16.851562 22.941406 " fill-opacity="1" fill-rule="nonzero"/></g><g clip-path="url(#681854c787)"><g transform="matrix(1, 0, 0, 1, 28, 2)"><g clip-path="url(#e1a21aaf33)"><g clip-path="url(#226086ca26)"><g fill="#004aad" fill-opacity="1"><g transform="translate(0.234761, 14.111153)"><g><path d="M 0.59375 0 C 0.25 0 0.140625 -0.160156 0.265625 -0.484375 L 3.96875 -10.15625 C 4.039062 -10.320312 4.117188 -10.429688 4.203125 -10.484375 C 4.296875 -10.535156 4.425781 -10.5625 4.59375 -10.5625 L 5.375 -10.5625 C 5.539062 -10.5625 5.671875 -10.535156 5.765625 -10.484375 C 5.867188 -10.441406 5.945312 -10.332031 6 -10.15625 L 9.71875 -0.484375 C 9.78125 -0.328125 9.785156 -0.207031 9.734375 -0.125 C 9.691406 -0.0390625 9.578125 0 9.390625 0 L 8.625 0 C 8.300781 0 8.078125 -0.0234375 7.953125 -0.078125 C 7.828125 -0.140625 7.742188 -0.265625 7.703125 -0.453125 L 7 -2.359375 L 2.90625 -2.359375 L 2.203125 -0.453125 C 2.140625 -0.265625 2.046875 -0.140625 1.921875 -0.078125 C 1.804688 -0.0234375 1.59375 0 1.28125 0 Z M 3.4375 -3.890625 L 6.484375 -3.890625 L 5.34375 -7.03125 C 5.25 -7.332031 5.175781 -7.617188 5.125 -7.890625 C 5.070312 -8.171875 5.035156 -8.398438 5.015625 -8.578125 C 5.003906 -8.753906 5 -8.84375 5 -8.84375 L 4.890625 -8.84375 C 4.890625 -8.84375 4.882812 -8.753906 4.875 -8.578125 C 4.863281 -8.410156 4.835938 -8.1875 4.796875 -7.90625 C 4.753906 -7.632812 4.679688 -7.347656 4.578125 -7.046875 Z M 3.4375 -3.890625 "/></g></g></g></g><g fill="#004aad" fill-opacity="1"><g transform="translate(11.551703, 14.111153)"><g><path d="M 1.390625 0 C 1.222656 0 1.109375 -0.03125 1.046875 -0.09375 C 0.984375 -0.164062 0.953125 -0.285156 0.953125 -0.453125 L 0.953125 -6.421875 C 0.953125 -6.648438 0.988281 -6.820312 1.0625 -6.9375 C 1.132812 -7.0625 1.285156 -7.164062 1.515625 -7.25 C 1.796875 -7.363281 2.160156 -7.46875 2.609375 -7.5625 C 3.054688 -7.65625 3.613281 -7.703125 4.28125 -7.703125 L 4.765625 -7.703125 C 4.929688 -7.703125 5.046875 -7.664062 5.109375 -7.59375 C 5.179688 -7.53125 5.21875 -7.414062 5.21875 -7.25 L 5.21875 -6.578125 C 5.21875 -6.410156 5.179688 -6.296875 5.109375 -6.234375 C 5.046875 -6.171875 4.929688 -6.140625 4.765625 -6.140625 L 4.234375 -6.140625 C 3.941406 -6.140625 3.679688 -6.117188 3.453125 -6.078125 C 3.222656 -6.046875 3.007812 -6.003906 2.8125 -5.953125 C 2.71875 -5.921875 2.671875 -5.859375 2.671875 -5.765625 L 2.671875 -0.453125 C 2.671875 -0.285156 2.632812 -0.164062 2.5625 -0.09375 C 2.5 -0.03125 2.382812 0 2.21875 0 Z M 1.390625 0 "/></g></g></g><g fill="#004aad" fill-opacity="1"><g transform="translate(18.309245, 14.111153)"><g><path d="M 1.65625 0 C 1.457031 0 1.320312 -0.0351562 1.25 -0.109375 C 1.175781 -0.179688 1.140625 -0.3125 1.140625 -0.5 L 1.140625 -10.046875 C 1.140625 -10.234375 1.175781 -10.363281 1.25 -10.4375 C 1.320312 -10.507812 1.457031 -10.546875 1.65625 -10.546875 L 4.984375 -10.546875 C 6.367188 -10.546875 7.429688 -10.191406 8.171875 -9.484375 C 8.910156 -8.785156 9.28125 -7.832031 9.28125 -6.625 L 9.28125 -3.921875 C 9.28125 -2.710938 8.910156 -1.753906 8.171875 -1.046875 C 7.429688 -0.347656 6.367188 0 4.984375 0 Z M 3 -1.734375 L 5 -1.734375 C 5.78125 -1.734375 6.378906 -1.921875 6.796875 -2.296875 C 7.222656 -2.671875 7.4375 -3.207031 7.4375 -3.90625 L 7.4375 -6.640625 C 7.4375 -7.347656 7.226562 -7.882812 6.8125 -8.25 C 6.394531 -8.625 5.789062 -8.8125 5 -8.8125 L 3 -8.8125 Z M 3 -1.734375 "/></g></g></g><g fill="#004aad" fill-opacity="1"><g transform="translate(29.744999, 14.111153)"><g><path d="M 1.765625 -9.015625 C 1.429688 -9.015625 1.203125 -9.070312 1.078125 -9.1875 C 0.953125 -9.3125 0.890625 -9.539062 0.890625 -9.875 L 0.890625 -10.015625 C 0.890625 -10.359375 0.953125 -10.582031 1.078125 -10.6875 C 1.203125 -10.800781 1.429688 -10.859375 1.765625 -10.859375 L 1.890625 -10.859375 C 2.234375 -10.859375 2.460938 -10.800781 2.578125 -10.6875 C 2.703125 -10.582031 2.765625 -10.359375 2.765625 -10.015625 L 2.765625 -9.875 C 2.765625 -9.539062 2.703125 -9.3125 2.578125 -9.1875 C 2.460938 -9.070312 2.234375 -9.015625 1.890625 -9.015625 Z M 1.421875 0 C 1.253906 0 1.132812 -0.03125 1.0625 -0.09375 C 1 -0.164062 0.96875 -0.285156 0.96875 -0.453125 L 0.96875 -7.25 C 0.96875 -7.414062 1 -7.53125 1.0625 -7.59375 C 1.132812 -7.664062 1.253906 -7.703125 1.421875 -7.703125 L 2.234375 -7.703125 C 2.398438 -7.703125 2.515625 -7.664062 2.578125 -7.59375 C 2.648438 -7.53125 2.6875 -7.414062 2.6875 -7.25 L 2.6875 -0.453125 C 2.6875 -0.285156 2.648438 -0.164062 2.578125 -0.09375 C 2.515625 -0.03125 2.398438 0 2.234375 0 Z M 1.421875 0 "/></g></g></g><g fill="#004aad" fill-opacity="1"><g transform="translate(34.720363, 14.111153)"><g><path d="M 4.046875 3.484375 C 3.242188 3.484375 2.59375 3.351562 2.09375 3.09375 C 1.601562 2.84375 1.226562 2.5 0.96875 2.0625 C 0.75 1.75 0.804688 1.503906 1.140625 1.328125 L 1.703125 1.015625 C 1.878906 0.921875 2.019531 0.882812 2.125 0.90625 C 2.226562 0.9375 2.335938 1.03125 2.453125 1.1875 C 2.609375 1.4375 2.804688 1.625 3.046875 1.75 C 3.285156 1.882812 3.609375 1.953125 4.015625 1.953125 C 5.066406 1.953125 5.59375 1.414062 5.59375 0.34375 L 5.59375 -0.40625 C 5.375 -0.34375 5.109375 -0.28125 4.796875 -0.21875 C 4.492188 -0.164062 4.160156 -0.140625 3.796875 -0.140625 C 2.753906 -0.140625 1.984375 -0.398438 1.484375 -0.921875 C 0.984375 -1.453125 0.734375 -2.1875 0.734375 -3.125 L 0.734375 -4.796875 C 0.734375 -5.804688 1.003906 -6.578125 1.546875 -7.109375 C 2.097656 -7.648438 2.941406 -7.921875 4.078125 -7.921875 C 4.679688 -7.921875 5.210938 -7.875 5.671875 -7.78125 C 6.140625 -7.6875 6.503906 -7.578125 6.765625 -7.453125 C 7.003906 -7.347656 7.15625 -7.242188 7.21875 -7.140625 C 7.28125 -7.046875 7.3125 -6.878906 7.3125 -6.640625 L 7.3125 0.25 C 7.3125 1.21875 7.054688 2 6.546875 2.59375 C 6.046875 3.1875 5.210938 3.484375 4.046875 3.484375 Z M 4.0625 -1.703125 C 4.375 -1.703125 4.660156 -1.726562 4.921875 -1.78125 C 5.179688 -1.832031 5.40625 -1.878906 5.59375 -1.921875 L 5.59375 -6 C 5.59375 -6.09375 5.550781 -6.15625 5.46875 -6.1875 C 5.300781 -6.226562 5.109375 -6.265625 4.890625 -6.296875 C 4.671875 -6.328125 4.441406 -6.34375 4.203125 -6.34375 C 3.597656 -6.34375 3.15625 -6.210938 2.875 -5.953125 C 2.59375 -5.703125 2.453125 -5.296875 2.453125 -4.734375 L 2.453125 -3.171875 C 2.453125 -2.703125 2.585938 -2.335938 2.859375 -2.078125 C 3.128906 -1.828125 3.53125 -1.703125 4.0625 -1.703125 Z M 4.0625 -1.703125 "/></g></g></g></g></g></g><g clip-path="url(#415f66264a)"><g transform="matrix(1, 0, 0, 1, 28, 19)"><g clip-path="url(#aa613309ea)"><g clip-path="url(#6ff52a2794)"><g fill="#061a32" fill-opacity="1"><g transform="translate(0.234761, 4.525958)"><g><path d="M 2.171875 0 L 1.921875 -0.671875 L 0.703125 -0.671875 L 0.46875 0 L 0.03125 0 L 1.125 -2.859375 L 1.53125 -2.859375 L 2.609375 0 Z M 0.84375 -1.03125 L 1.796875 -1.03125 L 1.3125 -2.359375 Z M 0.84375 -1.03125 "/></g></g></g></g><g fill="#061a32" fill-opacity="1"><g transform="translate(4.195958, 4.525958)"><g><path d="M 2.546875 0 L 2.078125 0 L 1.390625 -1.125 L 0.78125 -1.125 L 0.78125 0 L 0.359375 0 L 0.359375 -2.859375 L 1.4375 -2.859375 C 1.78125 -2.859375 2.03125 -2.78125 2.1875 -2.625 C 2.351562 -2.476562 2.4375 -2.265625 2.4375 -1.984375 C 2.4375 -1.765625 2.382812 -1.585938 2.28125 -1.453125 C 2.1875 -1.316406 2.035156 -1.222656 1.828125 -1.171875 Z M 0.78125 -2.484375 L 0.78125 -1.484375 L 1.4375 -1.484375 C 1.820312 -1.484375 2.015625 -1.648438 2.015625 -1.984375 C 2.015625 -2.316406 1.820312 -2.484375 1.4375 -2.484375 Z M 0.78125 -2.484375 "/></g></g></g><g fill="#061a32" fill-opacity="1"><g transform="translate(8.181652, 4.525958)"><g><path d="M 1.1875 0.0625 C 0.988281 0.0625 0.804688 0.046875 0.640625 0.015625 C 0.472656 -0.015625 0.347656 -0.046875 0.265625 -0.078125 L 0.203125 -0.484375 C 0.265625 -0.460938 0.347656 -0.4375 0.453125 -0.40625 C 0.554688 -0.382812 0.671875 -0.363281 0.796875 -0.34375 C 0.921875 -0.320312 1.046875 -0.3125 1.171875 -0.3125 C 1.410156 -0.3125 1.578125 -0.347656 1.671875 -0.421875 C 1.773438 -0.503906 1.828125 -0.617188 1.828125 -0.765625 C 1.828125 -0.890625 1.785156 -0.984375 1.703125 -1.046875 C 1.628906 -1.109375 1.507812 -1.160156 1.34375 -1.203125 L 0.84375 -1.34375 C 0.625 -1.394531 0.457031 -1.476562 0.34375 -1.59375 C 0.226562 -1.71875 0.171875 -1.890625 0.171875 -2.109375 C 0.171875 -2.347656 0.253906 -2.539062 0.421875 -2.6875 C 0.585938 -2.832031 0.84375 -2.90625 1.1875 -2.90625 C 1.382812 -2.90625 1.5625 -2.890625 1.71875 -2.859375 C 1.882812 -2.835938 2.003906 -2.816406 2.078125 -2.796875 L 2.09375 -2.40625 C 2.007812 -2.4375 1.890625 -2.46875 1.734375 -2.5 C 1.578125 -2.53125 1.410156 -2.546875 1.234375 -2.546875 C 1.003906 -2.546875 0.84375 -2.503906 0.75 -2.421875 C 0.65625 -2.347656 0.609375 -2.25 0.609375 -2.125 C 0.609375 -2 0.640625 -1.90625 0.703125 -1.84375 C 0.773438 -1.78125 0.898438 -1.726562 1.078125 -1.6875 L 1.5625 -1.5625 C 1.78125 -1.5 1.945312 -1.410156 2.0625 -1.296875 C 2.1875 -1.179688 2.25 -1.003906 2.25 -0.765625 C 2.25 -0.523438 2.164062 -0.328125 2 -0.171875 C 1.832031 -0.015625 1.5625 0.0625 1.1875 0.0625 Z M 1.1875 0.0625 "/></g></g></g><g fill="#061a32" fill-opacity="1"><g transform="translate(11.881554, 4.525958)"><g><path d="M 0.359375 0 L 0.359375 -2.859375 L 0.78125 -2.859375 L 0.78125 0 Z M 0.359375 0 "/></g></g></g><g fill="#061a32" fill-opacity="1"><g transform="translate(14.344387, 4.525958)"><g><path d="M 0.359375 0 L 0.359375 -2.859375 L 1.4375 -2.859375 C 1.78125 -2.859375 2.03125 -2.773438 2.1875 -2.609375 C 2.351562 -2.453125 2.4375 -2.234375 2.4375 -1.953125 C 2.4375 -1.671875 2.351562 -1.453125 2.1875 -1.296875 C 2.03125 -1.140625 1.78125 -1.0625 1.4375 -1.0625 L 0.78125 -1.0625 L 0.78125 0 Z M 0.78125 -1.421875 L 1.4375 -1.421875 C 1.632812 -1.421875 1.78125 -1.46875 1.875 -1.5625 C 1.96875 -1.65625 2.015625 -1.785156 2.015625 -1.953125 C 2.015625 -2.117188 1.96875 -2.25 1.875 -2.34375 C 1.78125 -2.4375 1.632812 -2.484375 1.4375 -2.484375 L 0.78125 -2.484375 Z M 0.78125 -1.421875 "/></g></g></g><g fill="#061a32" fill-opacity="1"><g transform="translate(18.223927, 4.525958)"><g/></g></g><g fill="#061a32" fill-opacity="1"><g transform="translate(20.478539, 4.525958)"><g><path d="M 0.359375 0 L 0.359375 -2.859375 L 1.359375 -2.859375 C 1.609375 -2.859375 1.816406 -2.804688 1.984375 -2.703125 C 2.148438 -2.609375 2.273438 -2.457031 2.359375 -2.25 C 2.441406 -2.039062 2.484375 -1.765625 2.484375 -1.421875 C 2.484375 -1.078125 2.441406 -0.800781 2.359375 -0.59375 C 2.273438 -0.382812 2.148438 -0.234375 1.984375 -0.140625 C 1.816406 -0.046875 1.609375 0 1.359375 0 Z M 0.78125 -0.375 L 1.359375 -0.375 C 1.515625 -0.375 1.644531 -0.40625 1.75 -0.46875 C 1.851562 -0.53125 1.929688 -0.632812 1.984375 -0.78125 C 2.035156 -0.9375 2.0625 -1.148438 2.0625 -1.421875 C 2.0625 -1.703125 2.035156 -1.914062 1.984375 -2.0625 C 1.929688 -2.21875 1.851562 -2.328125 1.75 -2.390625 C 1.644531 -2.453125 1.515625 -2.484375 1.359375 -2.484375 L 0.78125 -2.484375 Z M 0.78125 -0.375 "/></g></g></g><g fill="#061a32" fill-opacity="1"><g transform="translate(24.484644, 4.525958)"><g><path d="M 0.359375 0 L 0.359375 -2.859375 L 0.78125 -2.859375 L 0.78125 0 Z M 0.359375 0 "/></g></g></g><g fill="#061a32" fill-opacity="1"><g transform="translate(26.947476, 4.525958)"><g><path d="M 1.453125 0.0625 C 1.035156 0.0625 0.722656 -0.0546875 0.515625 -0.296875 C 0.304688 -0.546875 0.203125 -0.921875 0.203125 -1.421875 C 0.203125 -1.929688 0.300781 -2.304688 0.5 -2.546875 C 0.707031 -2.785156 1.023438 -2.90625 1.453125 -2.90625 C 1.609375 -2.90625 1.75 -2.890625 1.875 -2.859375 C 2.007812 -2.835938 2.109375 -2.8125 2.171875 -2.78125 L 2.203125 -2.390625 C 2.128906 -2.421875 2.023438 -2.453125 1.890625 -2.484375 C 1.753906 -2.523438 1.609375 -2.546875 1.453125 -2.546875 C 1.171875 -2.546875 0.960938 -2.457031 0.828125 -2.28125 C 0.691406 -2.113281 0.625 -1.828125 0.625 -1.421875 C 0.625 -1.023438 0.691406 -0.738281 0.828125 -0.5625 C 0.960938 -0.394531 1.171875 -0.3125 1.453125 -0.3125 C 1.523438 -0.3125 1.59375 -0.316406 1.65625 -0.328125 C 1.726562 -0.335938 1.789062 -0.347656 1.84375 -0.359375 L 1.84375 -1.53125 L 2.265625 -1.53125 L 2.265625 -0.09375 C 2.265625 -0.09375 2.226562 -0.078125 2.15625 -0.046875 C 2.09375 -0.0234375 2 -0.00390625 1.875 0.015625 C 1.75 0.046875 1.609375 0.0625 1.453125 0.0625 Z M 1.453125 0.0625 "/></g></g></g><g fill="#061a32" fill-opacity="1"><g transform="translate(30.773942, 4.525958)"><g><path d="M 0.359375 0 L 0.359375 -2.859375 L 0.78125 -2.859375 L 0.78125 0 Z M 0.359375 0 "/></g></g></g><g fill="#061a32" fill-opacity="1"><g transform="translate(33.236774, 4.525958)"><g><path d="M 2.15625 -2.859375 L 2.15625 -2.46875 L 1.328125 -2.46875 L 1.328125 0 L 0.90625 0 L 0.90625 -2.46875 L 0.078125 -2.46875 L 0.078125 -2.859375 Z M 2.15625 -2.859375 "/></g></g></g><g fill="#061a32" fill-opacity="1"><g transform="translate(36.773368, 4.525958)"><g><path d="M 2.171875 0 L 1.921875 -0.671875 L 0.703125 -0.671875 L 0.46875 0 L 0.03125 0 L 1.125 -2.859375 L 1.53125 -2.859375 L 2.609375 0 Z M 0.84375 -1.03125 L 1.796875 -1.03125 L 1.3125 -2.359375 Z M 0.84375 -1.03125 "/></g></g></g><g fill="#061a32" fill-opacity="1"><g transform="translate(40.734565, 4.525958)"><g><path d="M 0.359375 0 L 0.359375 -2.859375 L 0.78125 -2.859375 L 0.78125 -0.375 L 2.1875 -0.375 L 2.125 0 Z M 0.359375 0 "/></g></g></g></g></g></g></g></g></svg>